<svg width="28" height="28" viewBox="0 0 28 28" fill="none" xmlns="http://www.w3.org/2000/svg">
<path d="M10.6509 5.91577C12.2497 5.25353 14.0093 5.08114 15.7065 5.4187C17.4039 5.75632 18.9633 6.58952 20.187 7.81323C21.4106 9.03684 22.2439 10.5956 22.5815 12.2927C22.9192 13.99 22.7457 15.7495 22.0835 17.3484C21.4212 18.9472 20.2998 20.3137 18.8608 21.2751C17.4219 22.2366 15.7301 22.7488 13.9995 22.7488C11.6799 22.7459 9.45617 21.8245 7.81592 20.1843C6.1755 18.5439 5.25222 16.3197 5.24951 13.9998L5.25537 13.6765C5.3152 12.0593 5.82267 10.4875 6.72412 9.13843C7.68552 7.69964 9.05219 6.57803 10.6509 5.91577ZM17.4409 9.1521C17.2557 9.15371 17.072 9.19227 16.9019 9.26538C16.7348 9.33714 16.5837 9.44127 16.4565 9.57104L13.9995 12.0281L11.5425 9.57104C11.4153 9.44127 11.2642 9.33715 11.0972 9.26538C10.927 9.19227 10.7433 9.15371 10.5581 9.1521C10.373 9.15053 10.1894 9.18649 10.0181 9.25659C9.84668 9.32673 9.69101 9.43033 9.56006 9.56128C9.42912 9.69224 9.3255 9.84789 9.25537 10.0193C9.18527 10.1907 9.15026 10.3742 9.15186 10.5593C9.15346 10.7443 9.19121 10.9274 9.26416 11.0974C9.33584 11.2643 9.44023 11.4156 9.56982 11.5427V11.5437L12.0269 13.9998L9.56982 16.4578L9.56299 16.4646C9.30889 16.7277 9.16821 17.0803 9.17139 17.446C9.17462 17.8116 9.32121 18.1611 9.57959 18.4197C9.83822 18.6783 10.1885 18.8257 10.5542 18.8289C10.9199 18.832 11.2726 18.6913 11.5356 18.4373L13.9995 15.9734L16.4565 18.4304V18.4294C16.5838 18.5593 16.7348 18.6633 16.9019 18.7351C17.072 18.8082 17.2557 18.8468 17.4409 18.8484C17.626 18.8499 17.8097 18.815 17.981 18.7449C18.1523 18.6747 18.308 18.5711 18.439 18.4402C18.5699 18.3093 18.6735 18.1535 18.7437 17.9822C18.8138 17.8107 18.8488 17.6264 18.8472 17.4412C18.8455 17.2561 18.8069 17.0732 18.7339 16.9031C18.6621 16.736 18.5581 16.585 18.4282 16.4578H18.4292L15.9712 13.9998L18.4282 11.5427C18.558 11.4155 18.6621 11.2645 18.7339 11.0974C18.8069 10.9273 18.8456 10.7444 18.8472 10.5593C18.8488 10.3742 18.8137 10.1906 18.7437 10.0193C18.6735 9.84793 18.5699 9.69222 18.439 9.56128C18.3081 9.43037 18.1523 9.32673 17.981 9.25659C17.8097 9.18651 17.626 9.15055 17.4409 9.1521Z" fill="white" stroke="white" stroke-width="1.16667"/>
</svg>
