<svg width="24" height="24" viewBox="0 0 24 24" fill="none" xmlns="http://www.w3.org/2000/svg">
<path d="M5.58831 15.3868C5.33498 15.1023 5.18571 14.7396 5.16515 14.3584V9.60514C5.18565 9.22393 5.33492 8.86115 5.58831 8.57673L5.92296 8.24038C6.03519 8.12737 6.09821 7.97423 6.09821 7.81456C6.09821 7.6549 6.03519 7.50175 5.92296 7.38875L2.37323 3.82047C2.26067 3.70779 2.10828 3.64453 1.9494 3.64453C1.79053 3.64453 1.63814 3.70779 1.52558 3.82047L0.174372 5.17856C0.062668 5.29185 0 5.44488 0 5.60438C0 5.76388 0.062668 5.91691 0.174372 6.0302L2.70788 8.57662C2.96171 8.8608 3.11119 9.22369 3.13148 9.60504V14.3583C3.11124 14.7395 2.96175 15.1021 2.70788 15.386L0.174372 17.9334C0.062668 18.0467 0 18.1998 0 18.3592C0 18.5187 0.062668 18.6718 0.174372 18.7851L1.52558 20.1431C1.63815 20.2558 1.79054 20.319 1.9494 20.319C2.10827 20.319 2.26066 20.2558 2.37323 20.1431L5.92296 16.5746C6.03518 16.4615 6.0982 16.3084 6.0982 16.1488C6.0982 15.9891 6.03518 15.836 5.92296 15.723L5.58831 15.3868Z" fill="black"/>
<path d="M15.3445 18.3828C15.0616 18.6374 14.7008 18.7877 14.3215 18.8087H9.59369C9.21418 18.7877 8.85309 18.6375 8.56981 18.3828L8.23595 18.0456C8.12299 17.9333 7.97056 17.8703 7.81173 17.8703C7.65289 17.8703 7.50047 17.9333 7.38751 18.0456L3.83823 21.6139C3.72618 21.7272 3.66327 21.8805 3.66327 22.0402C3.66327 22.2 3.72618 22.3532 3.83823 22.4665L5.18943 23.8246C5.30225 23.9369 5.4546 23.9999 5.61337 23.9999C5.77214 23.9999 5.92449 23.9369 6.03731 23.8246L8.57026 21.2769C8.85346 21.0224 9.21444 20.8723 9.59379 20.8512H14.323C14.7023 20.8722 15.063 21.0223 15.346 21.2769L17.88 23.8246C17.9928 23.9369 18.1451 23.9999 18.3038 23.9999C18.4625 23.9999 18.6148 23.9369 18.7275 23.8246L20.0787 22.4665C20.1908 22.3532 20.2537 22.2 20.2537 22.0402C20.2537 21.8805 20.1908 21.7272 20.0787 21.6139L16.5268 18.0454C16.4141 17.9331 16.2619 17.8701 16.1033 17.8701C15.9446 17.8701 15.7923 17.9331 15.6796 18.0454L15.3445 18.3828Z" fill="black"/>
<path d="M18.411 8.61311C18.6649 8.89783 18.8147 9.26116 18.8353 9.64301V14.3945C18.8146 14.7761 18.6648 15.1392 18.411 15.4236L18.0762 15.7607C17.9643 15.8739 17.9016 16.027 17.9016 16.1866C17.9016 16.3461 17.9643 16.4991 18.0762 16.6123L21.6269 20.1802C21.7395 20.2928 21.8919 20.356 22.0507 20.356C22.2096 20.356 22.3619 20.2928 22.4745 20.1802L23.8257 18.8214C23.9378 18.7083 24.0008 18.5551 24.0008 18.3955C24.0008 18.2359 23.9378 18.0827 23.8257 17.9696L21.2927 15.4231C21.0388 15.1387 20.8889 14.7757 20.8682 14.394L20.8689 9.64256C20.8892 9.26073 21.0388 8.89739 21.2927 8.61266L23.8257 6.06624C23.9378 5.95336 24.0008 5.80037 24.0008 5.64087C24.0008 5.48138 23.9378 5.32839 23.8257 5.21551L22.4745 3.85662C22.4188 3.80069 22.3528 3.75631 22.2801 3.72604C22.2073 3.69576 22.1295 3.68018 22.0507 3.68018C21.9721 3.68018 21.8941 3.69576 21.8214 3.72604C21.7486 3.75631 21.6826 3.80069 21.6269 3.85662L18.0762 7.42433C17.9643 7.53753 17.9016 7.69063 17.9016 7.85021C17.9016 8.00979 17.9643 8.16288 18.0762 8.27608L18.411 8.61311Z" fill="black"/>
<path d="M8.65269 5.61689C8.93553 5.36193 9.29651 5.21168 9.67589 5.19102H14.4041C14.7834 5.21204 15.1442 5.36224 15.4272 5.61689L15.7627 5.95392C15.8182 6.00985 15.8842 6.0542 15.9569 6.08447C16.0296 6.11473 16.1074 6.13032 16.1861 6.13032C16.2647 6.13032 16.3427 6.11473 16.4153 6.08447C16.4879 6.0542 16.554 6.00985 16.6096 5.95392L20.1598 2.38542C20.2718 2.27213 20.3347 2.11888 20.3347 1.95915C20.3347 1.79942 20.2718 1.64617 20.1598 1.53288L18.8086 0.176371C18.6961 0.0634371 18.5437 0 18.3847 0C18.2257 0 18.0733 0.0634371 17.9608 0.176371L15.4273 2.7228C15.1443 2.97744 14.7835 3.12764 14.4042 3.14866H9.67589C9.29651 3.128 8.93553 2.97775 8.65269 2.7228L6.11918 0.176371C6.00636 0.0641245 5.85404 0.00116048 5.69529 0.00116048C5.53655 0.00116048 5.38423 0.0641245 5.27141 0.176371L3.92021 1.53446C3.80818 1.64774 3.7453 1.80096 3.7453 1.96068C3.7453 2.12039 3.80818 2.27361 3.92021 2.38689L7.4696 5.95381C7.58205 6.06675 7.73451 6.13018 7.89348 6.13018C8.05244 6.13018 8.20492 6.06675 8.31737 5.95381L8.65269 5.61689Z" fill="black"/>
</svg>
