<svg width="88" height="88" viewBox="0 0 88 88" fill="none" xmlns="http://www.w3.org/2000/svg">
<rect x="5" y="4.5" width="78" height="78" rx="39" stroke="white" stroke-width="3"/>
<circle cx="44" cy="43.5" r="37.5" fill="#C857F2"/>
<path fill-rule="evenodd" clip-rule="evenodd" d="M38.2796 30.1525C33.7162 30.1525 30.0169 33.8519 30.0169 38.4152V49.8559C30.0169 51.0845 29.0209 52.0805 27.7923 52.0805C26.5637 52.0805 25.5677 51.0845 25.5677 49.8559V38.4152C25.5677 31.3947 31.259 25.7034 38.2796 25.7034C45.3002 25.7034 50.9915 31.3947 50.9915 38.4152V49.8559C50.9915 51.0845 49.9955 52.0805 48.7669 52.0805C47.5383 52.0805 46.5423 51.0845 46.5423 49.8559V38.4152C46.5423 33.8519 42.843 30.1525 38.2796 30.1525Z" fill="white"/>
<path fill-rule="evenodd" clip-rule="evenodd" d="M48.4491 58.7542C53.0125 58.7542 56.7118 55.0549 56.7118 50.4915L56.7118 39.0508C56.7118 37.8222 57.7078 36.8263 58.9364 36.8263C60.165 36.8263 61.161 37.8222 61.161 39.0508V50.4915C61.161 57.5121 55.4697 63.2034 48.4491 63.2034C41.4285 63.2034 35.7372 57.5121 35.7372 50.4915L35.7372 39.0508C35.7372 37.8222 36.7332 36.8263 37.9618 36.8263C39.1904 36.8263 40.1864 37.8222 40.1864 39.0508L40.1864 50.4915C40.1864 55.0549 43.8857 58.7542 48.4491 58.7542Z" fill="white"/>
<path d="M61.4788 30.1525C61.4788 31.5567 60.3405 32.6949 58.9364 32.6949C57.5323 32.6949 56.394 31.5567 56.394 30.1525C56.394 28.7484 57.5323 27.6102 58.9364 27.6102C60.3405 27.6102 61.4788 28.7484 61.4788 30.1525Z" fill="white"/>
<circle cx="44" cy="44" r="43" stroke="url(#paint0_linear_2004_582)" stroke-width="2"/>
<defs>
<linearGradient id="paint0_linear_2004_582" x1="44" y1="0" x2="44" y2="88" gradientUnits="userSpaceOnUse">
<stop stop-color="#3461FF"/>
<stop offset="1" stop-color="#8454EB"/>
</linearGradient>
</defs>
</svg>
