<svg width="169" height="24" viewBox="0 0 169 24" fill="none" xmlns="http://www.w3.org/2000/svg">
<path d="M5.58831 15.3866C5.33498 15.1021 5.18571 14.7394 5.16515 14.3582V9.60492C5.18565 9.22371 5.33492 8.86092 5.58831 8.57651L5.92296 8.24016C6.03519 8.12715 6.09821 7.97401 6.09821 7.81434C6.09821 7.65468 6.03519 7.50153 5.92296 7.38852L2.37323 3.82025C2.26067 3.70757 2.10828 3.64431 1.9494 3.64431C1.79053 3.64431 1.63814 3.70757 1.52558 3.82025L0.174372 5.17834C0.062668 5.29163 0 5.44466 0 5.60416C0 5.76366 0.062668 5.91669 0.174372 6.02998L2.70788 8.5764C2.96171 8.86057 3.11119 9.22347 3.13148 9.60482V14.3581C3.11124 14.7393 2.96175 15.1019 2.70788 15.3858L0.174372 17.9332C0.062668 18.0465 0 18.1996 0 18.359C0 18.5185 0.062668 18.6715 0.174372 18.7849L1.52558 20.1429C1.63815 20.2555 1.79054 20.3188 1.9494 20.3188C2.10827 20.3188 2.26066 20.2555 2.37323 20.1429L5.92296 16.5744C6.03518 16.4613 6.0982 16.3082 6.0982 16.1486C6.0982 15.9889 6.03518 15.8358 5.92296 15.7228L5.58831 15.3866Z" fill="white"/>
<path d="M15.3445 18.383C15.0616 18.6376 14.7008 18.7878 14.3215 18.8089H9.59371C9.21419 18.7878 8.8531 18.6377 8.56983 18.383L8.23597 18.0457C8.123 17.9334 7.97057 17.8705 7.81175 17.8705C7.65291 17.8705 7.50048 17.9334 7.38753 18.0457L3.83825 21.614C3.72619 21.7274 3.66328 21.8806 3.66328 22.0404C3.66328 22.2001 3.72619 22.3534 3.83825 22.4666L5.18945 23.8248C5.30227 23.9371 5.45462 24 5.61339 24C5.77216 24 5.92451 23.9371 6.03733 23.8248L8.57028 21.277C8.85348 21.0225 9.21445 20.8724 9.59381 20.8514H14.323C14.7023 20.8723 15.0631 21.0224 15.346 21.277L17.8801 23.8248C17.9928 23.9371 18.1451 24 18.3038 24C18.4625 24 18.6148 23.9371 18.7275 23.8248L20.0787 22.4666C20.1908 22.3534 20.2537 22.2001 20.2537 22.0404C20.2537 21.8806 20.1908 21.7274 20.0787 21.614L16.5268 18.0455C16.4142 17.9332 16.2619 17.8703 16.1033 17.8703C15.9446 17.8703 15.7923 17.9332 15.6796 18.0455L15.3445 18.383Z" fill="white"/>
<path d="M18.411 8.61318C18.6649 8.89789 18.8147 9.26122 18.8353 9.64307V14.3946C18.8146 14.7762 18.6648 15.1392 18.411 15.4236L18.0762 15.7607C17.9643 15.874 17.9016 16.027 17.9016 16.1866C17.9016 16.3461 17.9643 16.4992 18.0762 16.6124L21.6269 20.1803C21.7395 20.2929 21.892 20.3561 22.0507 20.3561C22.2096 20.3561 22.3619 20.2929 22.4745 20.1803L23.8257 18.8214C23.9378 18.7083 24.0008 18.5552 24.0008 18.3955C24.0008 18.2359 23.9378 18.0827 23.8257 17.9697L21.2928 15.4232C21.0388 15.1388 20.8889 14.7757 20.8682 14.3941L20.8689 9.64262C20.8893 9.26079 21.0388 8.89745 21.2928 8.61272L23.8257 6.0663C23.9378 5.95342 24.0008 5.80043 24.0008 5.64093C24.0008 5.48144 23.9378 5.32845 23.8257 5.21557L22.4745 3.85668C22.4188 3.80075 22.3528 3.75637 22.2801 3.7261C22.2073 3.69583 22.1295 3.68024 22.0507 3.68024C21.9721 3.68024 21.8941 3.69583 21.8214 3.7261C21.7486 3.75637 21.6826 3.80075 21.6269 3.85668L18.0762 7.42439C17.9643 7.53759 17.9016 7.69069 17.9016 7.85027C17.9016 8.00985 17.9643 8.16294 18.0762 8.27615L18.411 8.61318Z" fill="white"/>
<path d="M8.6527 5.61689C8.93554 5.36193 9.29653 5.21168 9.67591 5.19102H14.4041C14.7834 5.21204 15.1442 5.36224 15.4272 5.61689L15.7627 5.95392C15.8182 6.00985 15.8842 6.0542 15.9569 6.08447C16.0296 6.11473 16.1075 6.13032 16.1861 6.13032C16.2647 6.13032 16.3427 6.11473 16.4153 6.08447C16.488 6.0542 16.554 6.00985 16.6096 5.95392L20.1598 2.38542C20.2718 2.27213 20.3347 2.11888 20.3347 1.95915C20.3347 1.79942 20.2718 1.64617 20.1598 1.53288L18.8086 0.176371C18.6962 0.0634371 18.5437 0 18.3847 0C18.2257 0 18.0733 0.0634371 17.9608 0.176371L15.4273 2.7228C15.1443 2.97744 14.7835 3.12764 14.4043 3.14866H9.67591C9.29653 3.128 8.93554 2.97775 8.6527 2.7228L6.11919 0.176371C6.00638 0.0641245 5.85405 0.00116048 5.69531 0.00116048C5.53657 0.00116048 5.38424 0.0641245 5.27142 0.176371L3.92022 1.53446C3.8082 1.64774 3.74532 1.80096 3.74532 1.96068C3.74532 2.12039 3.8082 2.27361 3.92022 2.38689L7.46961 5.95381C7.58206 6.06675 7.73452 6.13018 7.8935 6.13018C8.05246 6.13018 8.20493 6.06675 8.31738 5.95381L8.6527 5.61689Z" fill="white"/>
<path d="M33.0268 18V5.022H35.4028V15.606H45.9868V18H33.0268ZM47.0721 18V7.542C47.0721 7.086 47.1861 6.672 47.4141 6.3C47.6421 5.916 47.9421 5.61 48.3141 5.382C48.6981 5.154 49.1181 5.04 49.5741 5.04H57.5121C57.9681 5.04 58.3881 5.154 58.7721 5.382C59.1561 5.61 59.4621 5.916 59.6901 6.3C59.9181 6.672 60.0321 7.086 60.0321 7.542V18H57.6381V13.644H49.4481V18H47.0721ZM49.4481 11.268H57.6381V7.65C57.6381 7.59 57.6141 7.542 57.5661 7.506C57.5181 7.458 57.4641 7.434 57.4041 7.434H49.6641C49.6041 7.434 49.5501 7.458 49.5021 7.506C49.4661 7.542 49.4481 7.59 49.4481 7.65V11.268ZM62.137 18V5.04H72.073C72.529 5.04 72.943 5.154 73.315 5.382C73.699 5.61 74.005 5.916 74.233 6.3C74.461 6.672 74.575 7.086 74.575 7.542V10.08C74.575 10.236 74.563 10.386 74.539 10.53C74.515 10.674 74.473 10.812 74.413 10.944C74.617 11.22 74.779 11.508 74.899 11.808C75.031 12.108 75.097 12.408 75.097 12.708V15.498C75.097 15.954 74.983 16.374 74.755 16.758C74.527 17.13 74.221 17.43 73.837 17.658C73.453 17.886 73.033 18 72.577 18H62.137ZM64.729 15.606H72.469C72.529 15.606 72.583 15.588 72.631 15.552C72.679 15.504 72.703 15.45 72.703 15.39V12.816C72.703 12.756 72.679 12.708 72.631 12.672C72.583 12.624 72.529 12.6 72.469 12.6H64.729C64.669 12.6 64.615 12.624 64.567 12.672C64.531 12.708 64.513 12.756 64.513 12.816V15.39C64.513 15.45 64.531 15.504 64.567 15.552C64.615 15.588 64.669 15.606 64.729 15.606ZM64.729 10.206H71.965C72.025 10.206 72.073 10.188 72.109 10.152C72.145 10.104 72.163 10.05 72.163 9.99V7.65C72.163 7.59 72.145 7.542 72.109 7.506C72.073 7.458 72.025 7.434 71.965 7.434H64.729C64.669 7.434 64.615 7.458 64.567 7.506C64.531 7.542 64.513 7.59 64.513 7.65V9.99C64.513 10.05 64.531 10.104 64.567 10.152C64.615 10.188 64.669 10.206 64.729 10.206ZM79.5256 18C79.0696 18 78.6496 17.886 78.2656 17.658C77.8936 17.43 77.5936 17.13 77.3656 16.758C77.1376 16.374 77.0236 15.954 77.0236 15.498V5.04H79.3996V15.39C79.3996 15.45 79.4176 15.504 79.4536 15.552C79.5016 15.588 79.5556 15.606 79.6156 15.606H87.3556C87.4156 15.606 87.4696 15.588 87.5176 15.552C87.5656 15.504 87.5896 15.45 87.5896 15.39V5.04H89.9836V15.498C89.9836 15.954 89.8696 16.374 89.6416 16.758C89.4136 17.13 89.1076 17.43 88.7236 17.658C88.3516 17.886 87.9376 18 87.4816 18H79.5256ZM92.0198 18V5.04H101.956C102.412 5.04 102.826 5.154 103.198 5.382C103.582 5.61 103.888 5.916 104.116 6.3C104.344 6.672 104.458 7.086 104.458 7.542V10.08C104.458 10.236 104.446 10.386 104.422 10.53C104.398 10.674 104.356 10.812 104.296 10.944C104.5 11.22 104.662 11.508 104.782 11.808C104.914 12.108 104.98 12.408 104.98 12.708V15.498C104.98 15.954 104.866 16.374 104.638 16.758C104.41 17.13 104.104 17.43 103.72 17.658C103.336 17.886 102.916 18 102.46 18H92.0198ZM94.6118 15.606H102.352C102.412 15.606 102.466 15.588 102.514 15.552C102.562 15.504 102.586 15.45 102.586 15.39V12.816C102.586 12.756 102.562 12.708 102.514 12.672C102.466 12.624 102.412 12.6 102.352 12.6H94.6118C94.5518 12.6 94.4978 12.624 94.4498 12.672C94.4138 12.708 94.3958 12.756 94.3958 12.816V15.39C94.3958 15.45 94.4138 15.504 94.4498 15.552C94.4978 15.588 94.5518 15.606 94.6118 15.606ZM94.6118 10.206H101.848C101.908 10.206 101.956 10.188 101.992 10.152C102.028 10.104 102.046 10.05 102.046 9.99V7.65C102.046 7.59 102.028 7.542 101.992 7.506C101.956 7.458 101.908 7.434 101.848 7.434H94.6118C94.5518 7.434 94.4978 7.458 94.4498 7.506C94.4138 7.542 94.3958 7.59 94.3958 7.65V9.99C94.3958 10.05 94.4138 10.104 94.4498 10.152C94.4978 10.188 94.5518 10.206 94.6118 10.206ZM109.408 18C108.952 18 108.532 17.886 108.148 17.658C107.776 17.43 107.476 17.13 107.248 16.758C107.02 16.374 106.906 15.954 106.906 15.498V5.04H109.282V15.39C109.282 15.45 109.3 15.504 109.336 15.552C109.384 15.588 109.438 15.606 109.498 15.606H117.238C117.298 15.606 117.352 15.588 117.4 15.552C117.448 15.504 117.472 15.45 117.472 15.39V5.04H119.866V15.498C119.866 15.954 119.752 16.374 119.524 16.758C119.296 17.13 118.99 17.43 118.606 17.658C118.234 17.886 117.82 18 117.364 18H109.408ZM127.351 18V5.04H129.961L137.917 14.508V5.04H140.311V18H137.701L129.727 8.514V18H127.351ZM142.363 18V5.04H154.297V7.434H144.757V10.314H152.425V12.726H144.757V18H142.363ZM160.155 18V7.434H154.863V5.04H167.823V7.434H162.549V18H160.155Z" fill="white"/>
</svg>
