<svg width="19" height="19" viewBox="0 0 19 19" fill="none" xmlns="http://www.w3.org/2000/svg">
<g clip-path="url(#clip0_1693_2225)">
<path d="M12.4217 12.8109L17.8887 18.2787M0.950285 10.5841C1.68155 12.3047 3.06635 13.6643 4.80006 14.3639C6.53378 15.0634 8.47437 15.0456 10.195 14.3143C11.9155 13.5831 13.2751 12.1983 13.9747 10.4646C14.6742 8.73084 14.6564 6.79025 13.9252 5.06967C13.5631 4.21772 13.0367 3.44544 12.3762 2.79691C11.7157 2.14838 10.9338 1.63631 10.0754 1.28992C9.21695 0.94354 8.29868 0.769632 7.37303 0.778129C6.44737 0.786626 5.53245 0.977361 4.68051 1.33944C3.82856 1.70153 3.05628 2.22787 2.40775 2.88842C1.75922 3.54896 1.24715 4.33078 0.900763 5.18922C0.55438 6.04767 0.380472 6.96594 0.388969 7.89159C0.397466 8.81725 0.588201 9.73217 0.950285 10.5841Z" stroke="white" stroke-width="1.16667" stroke-linecap="round" stroke-linejoin="round"/>
</g>
<defs>
<clipPath id="clip0_1693_2225">
<rect width="18.6667" height="18.6667" fill="white"/>
</clipPath>
</defs>
</svg>
